HIERARCHY
ROOT ui
{
	 OFFSET 0 0 0
	 CHANNELS 3 XPosition YPosition Z Position
	 EndSite
	 {
	 OFFSET 0 -1 0
	 }
}
ROOT li
{
	 OFFSET 0 0 0
	 CHANNELS 3 XPosition YPosition Z Position
	 EndSite
	 {
	 OFFSET 0 -1 0
	 }
}
ROOT ul
{
	 OFFSET 0 0 0
	 CHANNELS 3 XPosition YPosition Z Position
	 EndSite
	 {
	 OFFSET 0 -1 0
	 }
}
ROOT ll
{
	 OFFSET 0 0 0
	 CHANNELS 3 XPosition YPosition Z Position
	 EndSite
	 {
	 OFFSET 0 -1 0
	 }
}
ROOT tt
{
	 OFFSET 0 0 0
	 CHANNELS 3 XPosition YPosition Z Position
	 EndSite
	 {
	 OFFSET 0 -1 0
	 }
}
ROOT tb
{
	 OFFSET 0 0 0
	 CHANNELS 3 XPosition YPosition Z Position
	 EndSite
	 {
	 OFFSET 0 -1 0
	 }
}
ROOT td
{
	 OFFSET 0 0 0
	 CHANNELS 3 XPosition YPosition Z Position
	 EndSite
	 {
	 OFFSET 0 -1 0
	 }
}
ROOT v
{
	 OFFSET 0 0 0
	 CHANNELS 3 XPosition YPosition Z Position
	 EndSite
	 {
	 OFFSET 0 -1 0
	 }
}
ROOT bn
{
	 OFFSET 0 0 0
	 CHANNELS 3 XPosition YPosition Z Position
	 EndSite
	 {
	 OFFSET 0 -1 0
	 }
}
MOTION
Frames: 16
Frame Time: 0.002
-0.05425674819946289	-0.0030395638942718505	0		0.4507383728027344	-2.3679677734375	0		-1.024872314453125	0.2110713348388672	0		-0.5669769897460938	-2.16231884765625	0		2.004091552734375	-0.5966111450195313	0		3.386767333984375	-0.545415771484375	0		4.49815283203125	-0.3431088562011719	0		6.0142890625	0.697889892578125	0		-0.3750176086425781	5.88001220703125	0		
0.02293412399291992	-0.005472602844238281	0		0.45313092041015623	-2.366513916015625	0		-1.0056128540039062	0.21623016357421876	0		-0.6314805908203125	-2.15017431640625	0		1.9602742919921874	-0.6025271606445313	0		3.38701171875	-0.5457369995117187	0		4.492474609375	-0.33528594970703124	0		6.02084765625	0.6974796142578125	0		-0.3742266845703125	5.8784208984375	0		
-0.04679541397094727	0.002785926103591919	0		0.4565113525390625	-2.362052978515625	0		-0.995463134765625	0.21452047729492188	0		-0.5501187744140625	-2.146663330078125	0		1.99846240234375	-0.6053666381835937	0		3.39948046875	-0.5231945190429688	0		4.51079443359375	-0.3247409362792969	0		6.02096533203125	0.6972210083007813	0		-0.3744212646484375	5.87786376953125	0		
0.030350378036499023	4.0673598647117615E-4	0		0.45478570556640624	-2.36451513671875	0		-0.9902686767578125	0.21789646911621094	0		-0.5498343505859375	-2.147205322265625	0		1.9925693359375	-0.613695556640625	0		3.38042626953125	-0.5452965087890626	0		4.5058740234375	-0.33393780517578125	0		6.020921875	0.6640714721679688	0		-0.37656039428710936	5.88035400390625	0		
0.02253108596801758	0.0010116150379180908	0		0.46908639526367185	-2.364134765625	0		-0.921159912109375	0.2125874328613281	0		-0.5594649658203125	-2.1396083984375	0		2.0206226806640624	-0.6273920288085938	0		3.39472314453125	-0.5367664184570312	0		4.51113818359375	-0.3272491149902344	0		6.021037109375	0.6637723999023437	0		-0.22351248168945312	5.895134765625	0		
0.02272514533996582	5.528519749641418E-4	0		0.4503006896972656	-2.37236083984375	0		-0.98588232421875	0.22080955505371094	0		-0.5591729736328125	-2.14009375	0		2.053620361328125	-0.6481259765625	0		3.411795654296875	-0.5502595825195312	0		4.5282568359375	-0.3356915283203125	0		6.01403857421875	0.6636529541015626	0		-0.3437032470703125	5.8850029296875	0		
0.023868391036987305	-0.007888623237609863	0		0.45062738037109373	-2.372774658203125	0		-0.98161474609375	0.2242938232421875	0		-0.5459229125976562	-2.146691650390625	0		2.050834228515625	-0.6524423217773437	0		3.406250244140625	-0.5324898681640625	0		4.526658203125	-0.3219215087890625	0		6.01506396484375	0.6961749267578125	0		-0.34370556640625	5.8845576171875	0		
0.026267696380615234	0.002687601089477539	0		0.4530057067871094	-2.37118359375	0		-0.9654122924804688	0.21768260192871094	0		-0.6114261474609375	-2.133381591796875	0		2.062988525390625	-0.665907958984375	0		3.435211181640625	-0.5630975952148437	0		4.54302294921875	-0.31535025024414065	0		6.0216767578125	0.6956583862304687	0		-0.3776772766113281	5.87952099609375	0		
0.02659114074707031	0.0023190350532531737	0		0.4773341369628906	-2.376805908203125	0		-0.9650944213867187	0.21728826904296875	0		-0.5411398315429687	-2.14253955078125	0		2.066207763671875	-0.677256103515625	0		3.428759765625	-0.5443013916015625	0		4.54419970703125	-0.3296116638183594	0		6.0283232421875	0.6951219482421875	0		-0.3585518798828125	5.8749326171875	0		
0.02695536422729492	0.0019852999448776243	0		0.44772116088867187	-2.378800537109375	0		-0.9596902465820313	0.22088119506835938	0		-0.544791748046875	-2.147839111328125	0		2.093439208984375	-0.6908499145507813	0		3.44292333984375	-0.5637268676757813	0		4.546591796875	-0.3278858337402344	0		6.02216259765625	0.6949069213867187	0		-0.3582939147949219	5.874591796875	0		
0.02431548309326172	-0.0012782139778137207	0		0.47105877685546876	-2.38634619140625	0		-0.9643431396484375	0.21663018798828124	0		-0.547399658203125	-2.1501083984375	0		2.096728515625	-0.7011590576171876	0		3.4512001953125	-0.575077880859375	0		4.56695361328125	-0.3313588562011719	0		6.0160224609375	0.6946673583984375	0		-0.34384866333007813	5.88413623046875	0		
-0.05326429748535156	3.2328999042510986E-4	0		0.4363353576660156	-2.39821728515625	0		-1.0188584594726562	0.2239769744873047	0		-0.6090225219726563	-2.152683349609375	0		2.149876953125	-0.7249976806640624	0		3.477416259765625	-0.5926180419921875	0		4.57227001953125	-0.3396671447753906	0		6.0163115234375	0.69423095703125	0		-0.3765138244628906	5.8782421875	0		
0.033105457305908206	-0.0028415570259094237	0		0.46571099853515624	-2.3987578125	0		-0.9394312744140625	0.22589691162109374	0		-0.5957100830078125	-2.15903857421875	0		2.15620166015625	-0.731298095703125	0		3.4890615234375	-0.569986328125	0		4.59365185546875	-0.34115316772460935	0		6.01659521484375	0.69376904296875	0		-0.3760686340332031	5.8780283203125	0		
-0.048461883544921876	0.0028891019821166994	0		0.4520866394042969	-2.39478564453125	0		-0.9390548706054688	0.22573918151855468	0		-0.5404227905273438	-2.163809326171875	0		2.174383544921875	-0.7477077026367187	0		3.482115234375	-0.598142333984375	0		4.5960517578125	-0.33842977905273436	0		6.01686328125	0.6932836303710938	0		-0.3775713195800781	5.87988232421875	0		
0.028855638504028322	9.087929725646972E-4	0		0.45821185302734374	-2.407992431640625	0		-0.9387156372070312	0.225635009765625	0		-0.609253662109375	-2.17315966796875	0		2.183508056640625	-0.7649933471679687	0		3.48746533203125	-0.595419677734375	0		4.608208984375	-0.3538132019042969	0		6.01345849609375	0.675576171875	0		-0.3430172424316406	5.88538671875	0		
-0.051879932403564456	-2.746939957141876E-4	0		0.4523307189941406	-2.41502392578125	0		-0.938426025390625	0.22558604431152343	0		-0.5253985595703125	-2.2051513671875	0		2.2046279296875	-0.777385498046875	0		3.501513916015625	-0.6147799072265625	0		4.614388671875	-0.3621249694824219	0		6.01730810546875	0.6922630004882813	0		-0.35664828491210937	5.87447265625	0		
